<svg version="1.1" xmlns="http://www.w3.org/2000/svg" viewBox="0 0 215 205" width="215" height="205"><!-- svg-source:excalidraw --><metadata></metadata><defs><style class="style-fonts">
      </style></defs><g stroke-linecap="round" transform="translate(10 10) rotate(0 97.5 92.5)"><path d="M130.35 5.3 C141.99 7.69, 154.88 15.64, 164.17 23.81 C173.46 31.98, 181.02 43.42, 186.1 54.32 C191.18 65.23, 194.32 77.53, 194.65 89.24 C194.98 100.95, 192.35 113.65, 188.06 124.59 C183.77 135.53, 177.36 146.14, 168.91 154.89 C160.47 163.63, 148.67 172, 137.38 177.08 C126.1 182.16, 113.38 185.08, 101.22 185.35 C89.05 185.62, 76.14 182.73, 64.39 178.71 C52.63 174.69, 40.05 169.18, 30.68 161.26 C21.32 153.34, 13.14 141.99, 8.2 131.18 C3.26 120.37, 1.38 108.1, 1.04 96.39 C0.7 84.68, 2.06 71.95, 6.15 60.93 C10.25 49.91, 17.28 39.17, 25.59 30.28 C33.9 21.4, 44.68 12.81, 56 7.62 C67.33 2.44, 79.84 -0.76, 93.53 -0.81 C107.21 -0.87, 129.93 5.13, 138.11 7.3 C146.29 9.47, 143.26 10.72, 142.62 12.22 M110.33 1.5 C122.42 1.35, 134.66 5.84, 145.45 11.6 C156.25 17.37, 167.22 27.04, 175.12 36.11 C183.01 45.19, 189.61 54.83, 192.84 66.05 C196.07 77.27, 196.33 91.59, 194.49 103.43 C192.64 115.27, 187.85 126.81, 181.78 137.1 C175.7 147.39, 167.49 157.53, 158.03 165.18 C148.56 172.82, 136.84 179.8, 125 182.98 C113.15 186.16, 99.45 185.98, 86.97 184.26 C74.48 182.54, 61.23 178.3, 50.1 172.67 C38.96 167.04, 27.7 159.69, 20.17 150.47 C12.64 141.25, 8.29 128.68, 4.92 117.37 C1.56 106.05, -1.3 94.11, -0.02 82.57 C1.27 71.04, 6.57 58.45, 12.64 48.17 C18.7 37.89, 26.43 28.19, 36.39 20.9 C46.35 13.62, 60.51 8.03, 72.38 4.47 C84.24 0.9, 101.42 -0.08, 107.58 -0.5 C113.75 -0.91, 109.34 0.23, 109.37 1.98" stroke="#1e1e1e" stroke-width="2" fill="none"></path></g><g stroke-linecap="round"><g transform="translate(102.29649313604068 23.12769006762926) rotate(0 2.363723928863749 66.47973549929236)"><path d="M0.78 -0.08 C1.46 21.82, 4.39 110.28, 4.95 132.55 M-0.27 -1.16 C0.2 21.41, 3.56 111.76, 4.12 133.87" stroke="#1e1e1e" stroke-width="2" fill="none"></path></g><g transform="translate(102.29649313604068 23.12769006762926) rotate(0 2.363723928863749 66.47973549929236)"><path d="M-5.18 110.66 C-1.62 119.6, 1.27 126.88, 4.12 133.87 M-5.18 110.66 C-2.2 119.44, 1.64 127.5, 4.12 133.87" stroke="#1e1e1e" stroke-width="2" fill="none"></path></g><g transform="translate(102.29649313604068 23.12769006762926) rotate(0 2.363723928863749 66.47973549929236)"><path d="M11.92 110.12 C9.12 119.37, 5.66 126.85, 4.12 133.87 M11.92 110.12 C8.93 119.07, 6.79 127.31, 4.12 133.87" stroke="#1e1e1e" stroke-width="2" fill="none"></path></g></g><mask></mask><g stroke-linecap="round"><g transform="translate(105.25114804712041 156.6780920484299) rotate(0 -11.523154153210669 -31.31934205744443)"><path d="M0.8 0.3 C-3.17 -10.28, -18.99 -52.68, -23.09 -63.14 M-0.25 -0.59 C-4.44 -11.04, -20.55 -51.79, -24.05 -61.86" stroke="#1e1e1e" stroke-width="2" fill="none"></path></g></g><mask></mask><g stroke-linecap="round"><g transform="translate(107.42590522945693 156.1863344179638) rotate(0 10.636757679886784 -30.432945584120517)"><path d="M0.01 -0.76 C3.52 -10.95, 17.29 -51.47, 20.83 -61.51 M-1.45 1.46 C1.89 -8.56, 16 -50.11, 19.65 -60.31" stroke="#1e1e1e" stroke-width="2" fill="none"></path></g></g><mask></mask><g stroke-linecap="round"><g transform="translate(55.89938507123611 165.32911858658474) rotate(0 49.94093826932044 -1.5770822611364395)"><path d="M1.12 0.44 C17.61 0.03, 82.44 -2.55, 99.08 -3.04 M0.24 -0.37 C17.11 -0.52, 84.61 -0.76, 101.37 -1.44" stroke="#1e1e1e" stroke-width="2" fill="none"></path></g></g><mask></mask></svg>