<svg version="1.1" xmlns="http://www.w3.org/2000/svg" viewBox="0 0 206.61248575033596 196.7907759740026" width="206.61248575033596" height="196.7907759740026"><!-- svg-source:excalidraw --><metadata></metadata><defs><style class="style-fonts">
      </style></defs><g stroke-linecap="round" transform="translate(10 10) rotate(0 93.30624287516804 88.3953879870013)"><path d="M58.99 5.22 C69.2 0.02, 83.46 0.29, 95.37 0.68 C107.27 1.07, 119.71 3.29, 130.41 7.56 C141.12 11.82, 151.48 18.27, 159.59 26.27 C167.7 34.28, 174.41 45.06, 179.06 55.6 C183.71 66.14, 187.56 78.23, 187.48 89.52 C187.39 100.81, 183.41 112.79, 178.53 123.34 C173.64 133.89, 166.5 144.97, 158.19 152.82 C149.87 160.66, 139.52 166.5, 128.63 170.41 C117.74 174.33, 104.94 176.33, 92.84 176.31 C80.74 176.29, 67.19 174.63, 56.02 170.29 C44.85 165.94, 34.21 158.39, 25.81 150.24 C17.41 142.1, 9.75 132.07, 5.6 121.44 C1.45 110.82, 0.67 97.72, 0.9 86.48 C1.13 75.23, 2.5 64.35, 6.99 53.98 C11.49 43.62, 18.52 32.55, 27.88 24.28 C37.24 16.01, 56.38 7.65, 63.14 4.38 C69.91 1.11, 67.87 3.24, 68.47 4.67 M127.2 5.6 C137.94 8.04, 147.85 16.15, 156.34 23.75 C164.83 31.35, 173.27 40.9, 178.14 51.18 C183.01 61.46, 185.24 73.72, 185.57 85.44 C185.9 97.15, 184.29 110.79, 180.13 121.46 C175.98 132.14, 168.79 141.49, 160.64 149.49 C152.48 157.49, 142.07 164.9, 131.18 169.48 C120.29 174.05, 107.09 176.68, 95.29 176.93 C83.49 177.19, 71.51 175.19, 60.38 171.01 C49.24 166.83, 36.95 159.5, 28.48 151.83 C20.02 144.16, 14.25 134.91, 9.59 124.98 C4.92 115.04, 0.84 103.8, 0.48 92.23 C0.12 80.66, 3.24 66.19, 7.41 55.55 C11.57 44.91, 17.39 36.55, 25.48 28.41 C33.56 20.27, 44.8 11.25, 55.91 6.7 C67.01 2.16, 80.52 1.34, 92.1 1.14 C103.69 0.94, 119.59 4.55, 125.44 5.49 C131.29 6.43, 127.49 5.29, 127.22 6.79" stroke="#1e1e1e" stroke-width="2" fill="none"></path></g><g stroke-linecap="round"><g transform="translate(40.119909980756006 137.02744644057964) rotate(0 59.912429635634226 -0.3273903258777864)"><path d="M-0.28 -0.36 C19.77 -0.34, 99.49 -0.49, 119.5 -0.39 M1.78 -1.6 C21.71 -1.92, 98.84 -2.36, 118.38 -2.37" stroke="#1e1e1e" stroke-width="2" fill="none"></path></g></g><mask></mask><g stroke-linecap="round"><g transform="translate(138.9283115129923 56.07886593223844) rotate(0 -30.091660855387204 38.097699064618666)"><path d="M-0.78 1.07 C-10.77 13.53, -49.35 62.54, -59.3 75.23 M1.01 0.59 C-9.12 13.12, -49.38 63.8, -59.78 76.26" stroke="#1e1e1e" stroke-width="2" fill="none"></path></g><g transform="translate(138.9283115129923 56.07886593223844) rotate(0 -30.091660855387204 38.097699064618666)"><path d="M-51.62 52.63 C-52.61 62.39, -58.89 68.8, -59.78 76.26 M-51.62 52.63 C-54.61 61.42, -58.65 70.59, -59.78 76.26" stroke="#1e1e1e" stroke-width="2" fill="none"></path></g><g transform="translate(138.9283115129923 56.07886593223844) rotate(0 -30.091660855387204 38.097699064618666)"><path d="M-38.34 63.4 C-44.06 69.28, -55.04 71.88, -59.78 76.26 M-38.34 63.4 C-46.36 68.12, -55.48 73.17, -59.78 76.26" stroke="#1e1e1e" stroke-width="2" fill="none"></path></g></g><mask></mask><g stroke-linecap="round"><g transform="translate(87.5428086907973 108.80048699050042) rotate(0 25.908137803657723 -26.100049935536703)"><path d="M-0.01 0.74 C8.43 -8.01, 42.69 -44.16, 51.16 -52.86 M-1.47 0.08 C7.32 -8.49, 44.42 -42.76, 53.53 -51.68" stroke="#1e1e1e" stroke-width="2" fill="none"></path></g></g><mask></mask><g stroke-linecap="round"><g transform="translate(99.82518513104992 118.77991784820563) rotate(0 21.49415877044197 -30.70594110063142)"><path d="M0.83 1.05 C7.72 -9.36, 34.94 -51.96, 42 -62.53 M-0.2 0.55 C7 -9.74, 37.08 -51.24, 44.19 -61.58" stroke="#1e1e1e" stroke-width="2" fill="none"></path></g></g><mask></mask><g stroke-linecap="round" transform="translate(137.43996297932335 49.69155037178493) rotate(0 4.222066901336802 4.605891165094718)"><path d="M4.35 0.27 C5.2 0.17, 6.5 0.52, 7.16 1.08 C7.82 1.64, 8.26 2.66, 8.34 3.61 C8.41 4.56, 8 5.88, 7.59 6.78 C7.19 7.68, 6.77 8.63, 5.92 9.01 C5.07 9.38, 3.44 9.4, 2.49 9.02 C1.55 8.65, 0.62 7.68, 0.24 6.76 C-0.14 5.84, -0.05 4.42, 0.21 3.5 C0.48 2.58, 1.11 1.81, 1.83 1.25 C2.55 0.69, 4.09 0.35, 4.53 0.15 C4.98 -0.04, 4.52 -0.02, 4.51 0.08 M4.07 0.01 C5.02 -0.15, 6.31 0.4, 6.96 0.97 C7.61 1.54, 7.82 2.57, 7.97 3.45 C8.13 4.32, 8.3 5.38, 7.9 6.22 C7.5 7.06, 6.3 8.01, 5.56 8.5 C4.82 9, 4.3 9.37, 3.45 9.18 C2.61 8.98, 1.05 8.21, 0.49 7.32 C-0.06 6.44, 0.05 4.88, 0.14 3.85 C0.22 2.82, 0.45 1.79, 1.01 1.13 C1.57 0.48, 2.93 0.1, 3.48 -0.09 C4.03 -0.29, 4.31 -0.05, 4.31 -0.03" stroke="#1e1e1e" stroke-width="2" fill="none"></path></g><g stroke-linecap="round"><g transform="translate(86.07325608293479 107.78682310133303) rotate(0 6.498577723559606 6.726597994561729)"><path d="M0.52 -0.24 C1.23 1.51, 1.92 8.46, 4.05 10.79 C6.19 13.13, 11.91 13.39, 13.31 13.75 M0.13 0.83 C0.82 2.41, 1.66 8.1, 3.83 10.1 C6 12.1, 11.72 12.32, 13.13 12.84" stroke="#1e1e1e" stroke-width="2" fill="none"></path></g></g><mask></mask></svg>