<svg version="1.1" xmlns="http://www.w3.org/2000/svg" viewBox="0 0 179.08352692453082 175.75939352610783" width="179.08352692453082" height="175.75939352610783"><!-- svg-source:excalidraw --><metadata></metadata><defs><style class="style-fonts">
      </style></defs><g stroke-linecap="round" transform="translate(10 10) rotate(0 79.54176346226541 77.87969676305391)"><path d="M84.57 -0.03 C94.87 -0.49, 106.7 4.4, 116.29 9.24 C125.88 14.09, 135.49 20.87, 142.11 29.06 C148.73 37.26, 153.37 48.02, 156 58.42 C158.63 68.83, 159.64 80.97, 157.88 91.49 C156.12 102.01, 151.66 112.78, 145.47 121.55 C139.27 130.31, 129.82 138.54, 120.71 144.07 C111.61 149.6, 101.29 153.38, 90.84 154.72 C80.4 156.05, 68.53 155.01, 58.04 152.08 C47.56 149.14, 36.44 143.93, 27.93 137.11 C19.42 130.29, 11.8 120.58, 7 111.17 C2.19 101.76, -0.61 91.12, -0.89 80.64 C-1.17 70.15, 1.01 58.14, 5.34 48.24 C9.67 38.34, 17.2 28.53, 25.11 21.24 C33.02 13.95, 40.45 7.56, 52.8 4.53 C65.14 1.5, 89.45 2.52, 99.18 3.05 C108.9 3.59, 111.42 6.77, 111.16 7.76 M110.09 6.29 C119.85 8.87, 128.63 16.21, 135.84 23.85 C143.06 31.49, 149.45 42.42, 153.39 52.13 C157.33 61.84, 159.93 71.93, 159.47 82.12 C159.01 92.32, 155.63 103.87, 150.64 113.31 C145.64 122.75, 137.92 132.2, 129.5 138.76 C121.07 145.31, 110.44 149.75, 100.1 152.63 C89.76 155.52, 78.26 157.65, 67.46 156.09 C56.66 154.53, 44.67 149.53, 35.28 143.26 C25.9 136.99, 16.82 127.27, 11.13 118.46 C5.45 109.64, 2.43 100.86, 1.16 90.36 C-0.11 79.87, 0.6 65.91, 3.53 55.5 C6.47 45.08, 12.04 35.93, 18.76 27.89 C25.49 19.84, 34.08 11.93, 43.88 7.22 C53.68 2.5, 66.71 -0.38, 77.57 -0.41 C88.44 -0.44, 104.05 5.58, 109.06 7.03 C114.08 8.48, 107.98 7.49, 107.67 8.28" stroke="#1e1e1e" stroke-width="2" fill="none"></path></g><g stroke-linecap="round"><g transform="translate(37.77707861751685 85.27317611313339) rotate(0 54.13588677431795 0.4748761997747124)"><path d="M0.86 -0.84 C19.04 -1, 90.35 -0.23, 108.37 0.05 M-0.14 1.34 C17.94 1.83, 89.35 0.99, 107.47 1.11" stroke="#1e1e1e" stroke-width="2" fill="none"></path></g></g><mask></mask><g stroke-linecap="round"><g transform="translate(90.0134605927359 46.3333277316064) rotate(0 0.4748761997747124 43.68861037927417)"><path d="M-0.02 -0.82 C0.04 13.52, 0.5 72.52, 0.85 87.14 M-1.49 1.36 C-1.64 16.41, -0.71 74.12, -0.15 88.56" stroke="#1e1e1e" stroke-width="2" fill="none"></path></g></g><mask></mask></svg>